<svg
  width="16"
  height="16"
  viewBox="0 0 16 16"
  fill="none"
  xmlns="http://www.w3.org/2000/svg"
>
  <g clip-path="url(#clip0_4167_7018)">
    <path
      fill-rule="evenodd"
      clip-rule="evenodd"
      d="M6.33301 13.1667C6.05687 13.1667 5.83301 13.3905 5.83301 13.6667C5.83301 13.9428 6.05687 14.1667 6.33301 14.1667C6.60915 14.1667 6.83301 13.9428 6.83301 13.6667C6.83301 13.3905 6.60915 13.1667 6.33301 13.1667ZM4.83301 13.6667C4.83301 12.8382 5.50458 12.1667 6.33301 12.1667C7.16144 12.1667 7.83301 12.8382 7.83301 13.6667C7.83301 14.4951 7.16144 15.1667 6.33301 15.1667C5.50458 15.1667 4.83301 14.4951 4.83301 13.6667Z"
      fill="#28303F"
    />
    <path
      fill-rule="evenodd"
      clip-rule="evenodd"
      d="M12.333 13.1667C12.0569 13.1667 11.833 13.3905 11.833 13.6667C11.833 13.9428 12.0569 14.1667 12.333 14.1667C12.6092 14.1667 12.833 13.9428 12.833 13.6667C12.833 13.3905 12.6092 13.1667 12.333 13.1667ZM10.833 13.6667C10.833 12.8382 11.5046 12.1667 12.333 12.1667C13.1614 12.1667 13.833 12.8382 13.833 13.6667C13.833 14.4951 13.1614 15.1667 12.333 15.1667C11.5046 15.1667 10.833 14.4951 10.833 13.6667Z"
      fill="#28303F"
    />
    <path
      fill-rule="evenodd"
      clip-rule="evenodd"
      d="M0.833008 1.33333C0.833008 1.05719 1.05687 0.833334 1.33301 0.833334H2.66634C3.50553 0.833334 4.21302 1.39717 4.43066 2.16667H11.9997C13.7486 2.16667 15.1663 3.58443 15.1663 5.33333V8.66667C15.1663 10.4156 13.7486 11.8333 11.9997 11.8333H6.66634C4.91744 11.8333 3.49967 10.4156 3.49967 8.66667V2.66667C3.49967 2.20643 3.12658 1.83333 2.66634 1.83333H1.33301C1.05687 1.83333 0.833008 1.60948 0.833008 1.33333ZM4.49967 5.83333V8.66667C4.49967 9.86329 5.46972 10.8333 6.66634 10.8333H11.9997C13.1963 10.8333 14.1663 9.86329 14.1663 8.66667V5.83333H4.49967ZM14.1084 4.83333H4.49967V3.16667H11.9997C13.0242 3.16667 13.8826 3.87777 14.1084 4.83333Z"
      fill="#28303F"
    />
  </g>
  <defs>
    <clipPath id="clip0_4167_7018">
      <rect width="16" height="16" fill="white" />
    </clipPath>
  </defs>
</svg>
