<svg
  width="16"
  height="16"
  viewBox="0 0 16 16"
  fill="none"
  xmlns="http://www.w3.org/2000/svg"
>
  <g clip-path="url(#clip0_4167_6936)">
    <path
      fill-rule="evenodd"
      clip-rule="evenodd"
      d="M7.5 1.33334C7.5 1.05719 7.72386 0.833336 8 0.833336C11.958 0.833336 15.1667 4.04196 15.1667 8C15.1667 11.958 11.958 15.1667 8 15.1667C7.72386 15.1667 7.5 14.9428 7.5 14.6667C7.5 14.3905 7.72386 14.1667 8 14.1667C11.4058 14.1667 14.1667 11.4058 14.1667 8C14.1667 4.59425 11.4058 1.83334 8 1.83334C7.72386 1.83334 7.5 1.60948 7.5 1.33334Z"
      fill="#2E4E8C"
    />
    <path
      fill-rule="evenodd"
      clip-rule="evenodd"
      d="M7.79839 0.836112C7.86528 0.834265 7.93237 0.833336 7.99967 0.833336C8.27582 0.833336 8.49967 1.05719 8.49967 1.33334C8.49967 1.60948 8.27582 1.83334 7.99967 1.83334C7.94158 1.83334 7.88368 1.83414 7.82599 1.83573C7.54996 1.84335 7.32001 1.62576 7.31238 1.34972C7.30476 1.07369 7.52236 0.843734 7.79839 0.836112ZM6.08853 1.59163C6.18707 1.84959 6.05782 2.13859 5.79986 2.23712C5.69191 2.27835 5.58541 2.32254 5.48046 2.36957C5.22847 2.48251 4.93263 2.36978 4.8197 2.11779C4.70676 1.8658 4.81949 1.56996 5.07148 1.45703C5.19356 1.40232 5.31745 1.35092 5.44304 1.30295C5.701 1.20442 5.99 1.33366 6.08853 1.59163ZM3.78297 2.81202C3.97271 3.01265 3.96389 3.32911 3.76326 3.51885C3.67942 3.59814 3.59781 3.67975 3.51852 3.76358C3.32878 3.96421 3.01232 3.97304 2.81169 3.7833C2.61106 3.59355 2.60223 3.27709 2.79198 3.07646C2.88404 2.97912 2.97879 2.88436 3.07613 2.79231C3.27676 2.60256 3.59322 2.61139 3.78297 2.81202ZM2.11746 4.82003C2.36945 4.93296 2.48218 5.2288 2.36925 5.48079C2.32221 5.58574 2.27803 5.69224 2.23679 5.80019C2.13826 6.05815 1.84926 6.1874 1.5913 6.08886C1.33333 5.99033 1.20409 5.70133 1.30262 5.44337C1.35059 5.31777 1.40199 5.19388 1.4567 5.07181C1.56964 4.81982 1.86547 4.70709 2.11746 4.82003ZM1.34939 7.31271C1.62543 7.32033 1.84302 7.55029 1.8354 7.82632C1.83381 7.88401 1.83301 7.94191 1.83301 8C1.83301 8.0581 1.83381 8.116 1.8354 8.17368C1.84302 8.44972 1.62543 8.67967 1.34939 8.68729C1.07336 8.69492 0.843406 8.47732 0.835784 8.20128C0.833937 8.1344 0.833008 8.0673 0.833008 8C0.833008 7.9327 0.833937 7.8656 0.835784 7.79872C0.843406 7.52268 1.07336 7.30509 1.34939 7.31271ZM1.5913 9.91114C1.84926 9.81261 2.13826 9.94185 2.23679 10.1998C2.27803 10.3078 2.32221 10.4143 2.36925 10.5192C2.48218 10.7712 2.36945 11.067 2.11746 11.18C1.86547 11.2929 1.56964 11.1802 1.4567 10.9282C1.40199 10.8061 1.35059 10.6822 1.30262 10.5566C1.20409 10.2987 1.33333 10.0097 1.5913 9.91114ZM2.81169 12.2167C3.01232 12.027 3.32878 12.0358 3.51852 12.2364C3.59781 12.3203 3.67942 12.4019 3.76326 12.4812C3.96389 12.6709 3.97271 12.9874 3.78297 13.188C3.59322 13.3886 3.27676 13.3974 3.07613 13.2077C2.9788 13.1156 2.88404 13.0209 2.79198 12.9235C2.60223 12.7229 2.61106 12.4065 2.81169 12.2167ZM4.8197 13.8822C4.93263 13.6302 5.22847 13.5175 5.48046 13.6304C5.58541 13.6775 5.69191 13.7217 5.79986 13.7629C6.05782 13.8614 6.18707 14.1504 6.08853 14.4084C5.99 14.6663 5.701 14.7956 5.44304 14.6971C5.31745 14.6491 5.19356 14.5977 5.07148 14.543C4.81949 14.43 4.70676 14.1342 4.8197 13.8822ZM7.31238 14.6503C7.32001 14.3742 7.54996 14.1567 7.82599 14.1643C7.88368 14.1659 7.94158 14.1667 7.99967 14.1667C8.27582 14.1667 8.49967 14.3905 8.49967 14.6667C8.49967 14.9428 8.27582 15.1667 7.99967 15.1667C7.93237 15.1667 7.86528 15.1657 7.79839 15.1639C7.52236 15.1563 7.30476 14.9263 7.31238 14.6503Z"
      fill="#2E4E8C"
    />
    <path
      fill-rule="evenodd"
      clip-rule="evenodd"
      d="M8 7.5C7.72386 7.5 7.5 7.72386 7.5 8C7.5 8.27614 7.72386 8.5 8 8.5C8.27614 8.5 8.5 8.27614 8.5 8C8.5 7.72386 8.27614 7.5 8 7.5ZM6.5 8C6.5 7.17157 7.17157 6.5 8 6.5C8.82843 6.5 9.5 7.17157 9.5 8C9.5 8.82843 8.82843 9.5 8 9.5C7.17157 9.5 6.5 8.82843 6.5 8Z"
      fill="#2E4E8C"
    />
    <path
      fill-rule="evenodd"
      clip-rule="evenodd"
      d="M8 8.5C8.27614 8.5 8.5 8.72386 8.5 9V10.6667C8.5 10.9428 8.27614 11.1667 8 11.1667C7.72386 11.1667 7.5 10.9428 7.5 10.6667V9C7.5 8.72386 7.72386 8.5 8 8.5Z"
      fill="#2E4E8C"
    />
    <path
      fill-rule="evenodd"
      clip-rule="evenodd"
      d="M8 3.5C8.27614 3.5 8.5 3.72386 8.5 4V7C8.5 7.27614 8.27614 7.5 8 7.5C7.72386 7.5 7.5 7.27614 7.5 7V4C7.5 3.72386 7.72386 3.5 8 3.5Z"
      fill="#2E4E8C"
    />
  </g>
  <defs>
    <clipPath id="clip0_4167_6936">
      <rect width="16" height="16" fill="white" />
    </clipPath>
  </defs>
</svg>
