<svg
  width="28"
  height="28"
  viewBox="0 0 28 28"
  fill="none"
  xmlns="http://www.w3.org/2000/svg"
>
  <path
    fill-rule="evenodd"
    clip-rule="evenodd"
    d="M14.0003 0.666504C6.63653 0.666504 0.666992 6.63604 0.666992 13.9998C0.666992 21.3636 6.63653 27.3332 14.0003 27.3332C21.3641 27.3332 27.3337 21.3636 27.3337 13.9998C27.3337 10.4636 25.9289 7.07223 23.4284 4.57175C20.9279 2.07126 17.5365 0.666504 14.0003 0.666504ZM14.0003 24.6665C8.10929 24.6665 3.33366 19.8909 3.33366 13.9998C3.33366 8.1088 8.10929 3.33317 14.0003 3.33317C19.8914 3.33317 24.667 8.1088 24.667 13.9998C24.667 16.8288 23.5432 19.5419 21.5428 21.5423C19.5424 23.5427 16.8293 24.6665 14.0003 24.6665ZM15.1737 6.6665V13.5198L20.0137 18.3598C20.2694 18.6236 20.2694 19.0428 20.0137 19.3065L19.307 20.0132C19.0432 20.2689 18.6241 20.2689 18.3603 20.0132L13.027 14.6798C12.9048 14.5544 12.8335 14.3881 12.827 14.2132V6.6665C12.827 6.29831 13.1255 5.99984 13.4937 5.99984H14.507C14.8752 5.99984 15.1737 6.29831 15.1737 6.6665Z"
    fill="#2E4E8C"
  />
</svg>
