<svg
  width="16"
  height="14"
  viewBox="0 0 16 14"
  fill="none"
  xmlns="http://www.w3.org/2000/svg"
>
  <path
    fill-rule="evenodd"
    clip-rule="evenodd"
    d="M0.833313 3.66667C0.833313 1.91777 2.25108 0.5 3.99998 0.5H6.66665C8.24541 0.5 9.55434 1.65534 9.79406 3.16667H11.4727C11.9385 3.16667 12.3868 3.34395 12.7266 3.66252L14.5872 5.40682C14.9569 5.75341 15.1666 6.23756 15.1666 6.74431V10.3333C15.1666 11.1922 14.576 11.9131 13.7788 12.1122C13.5798 12.9094 12.8589 13.5 12 13.5C11.1608 13.5 10.4533 12.9362 10.2357 12.1667H6.43097C6.21333 12.9362 5.50583 13.5 4.66665 13.5C3.75167 13.5 2.99325 12.8297 2.85561 11.9534C1.67251 11.4946 0.833313 10.3458 0.833313 9V3.66667ZM2.99237 10.9188C3.27857 10.279 3.92045 9.83333 4.66665 9.83333C5.50583 9.83333 6.21333 10.3972 6.43097 11.1667H8.83331V3.66667C8.83331 2.47005 7.86326 1.5 6.66665 1.5H3.99998C2.80336 1.5 1.83331 2.47005 1.83331 3.66667V9C1.83331 9.83244 2.30307 10.556 2.99237 10.9188ZM9.83331 11.1667H10.2357C10.4533 10.3972 11.1608 9.83333 12 9.83333C12.8018 9.83333 13.4834 10.3481 13.7323 11.0651C13.9911 10.9237 14.1666 10.649 14.1666 10.3333V6.74431C14.1666 6.51397 14.0713 6.2939 13.9033 6.13636L12.0427 4.39205C11.8882 4.24725 11.6844 4.16667 11.4727 4.16667H9.83331V11.1667ZM4.66665 10.8333C4.22409 10.8333 3.86179 11.1786 3.83493 11.6141C3.83386 11.6314 3.83331 11.6489 3.83331 11.6667C3.83331 12.1269 4.20641 12.5 4.66665 12.5C5.12688 12.5 5.49998 12.1269 5.49998 11.6667C5.49998 11.2064 5.12688 10.8333 4.66665 10.8333ZM12 10.8333C11.5397 10.8333 11.1666 11.2064 11.1666 11.6667C11.1666 12.1269 11.5397 12.5 12 12.5C12.4602 12.5 12.8333 12.1269 12.8333 11.6667C12.8333 11.2064 12.4602 10.8333 12 10.8333Z"
    fill="#1B1F2C"
  />
</svg>
