<svg
  width="16"
  height="16"
  viewBox="0 0 16 16"
  fill="none"
  xmlns="http://www.w3.org/2000/svg"
>
  <path
    fill-rule="evenodd"
    clip-rule="evenodd"
    d="M0.833008 4.66667C0.833008 2.91777 2.25077 1.5 3.99967 1.5H6.66634C8.24511 1.5 9.55403 2.65534 9.79376 4.16667H11.4724C11.9382 4.16667 12.3865 4.34395 12.7263 4.66252L14.5869 6.40682C14.9566 6.75341 15.1663 7.23756 15.1663 7.74431V11.3333C15.1663 12.1922 14.5757 12.9131 13.7785 13.1122C13.5795 13.9094 12.8586 14.5 11.9997 14.5C11.1605 14.5 10.453 13.9362 10.2354 13.1667H6.43066C6.21302 13.9362 5.50553 14.5 4.66634 14.5C3.75137 14.5 2.99295 13.8297 2.8553 12.9534C1.6722 12.4946 0.833008 11.3458 0.833008 10V4.66667ZM2.99207 11.9188C3.27826 11.279 3.92015 10.8333 4.66634 10.8333C5.50553 10.8333 6.21302 11.3972 6.43066 12.1667H8.83301V4.66667C8.83301 3.47005 7.86296 2.5 6.66634 2.5H3.99967C2.80306 2.5 1.83301 3.47005 1.83301 4.66667V10C1.83301 10.8324 2.30277 11.556 2.99207 11.9188ZM9.83301 12.1667H10.2354C10.453 11.3972 11.1605 10.8333 11.9997 10.8333C12.8015 10.8333 13.4831 11.3481 13.732 12.0651C13.9908 11.9237 14.1663 11.649 14.1663 11.3333V7.74431C14.1663 7.51397 14.071 7.2939 13.903 7.13636L12.0424 5.39205C11.8879 5.24725 11.6841 5.16667 11.4724 5.16667H9.83301V12.1667ZM4.66634 11.8333C4.22379 11.8333 3.86149 12.1786 3.83462 12.6141C3.83355 12.6314 3.83301 12.6489 3.83301 12.6667C3.83301 13.1269 4.2061 13.5 4.66634 13.5C5.12658 13.5 5.49967 13.1269 5.49967 12.6667C5.49967 12.2064 5.12658 11.8333 4.66634 11.8333ZM11.9997 11.8333C11.5394 11.8333 11.1663 12.2064 11.1663 12.6667C11.1663 13.1269 11.5394 13.5 11.9997 13.5C12.4599 13.5 12.833 13.1269 12.833 12.6667C12.833 12.2064 12.4599 11.8333 11.9997 11.8333Z"
    fill="#1B1F2C"
  />
  <path
    fill-rule="evenodd"
    clip-rule="evenodd"
    d="M4.83301 5.33333C4.83301 5.05719 5.05687 4.83333 5.33301 4.83333L6.66634 4.83333C6.94248 4.83333 7.16634 5.05719 7.16634 5.33333C7.16634 5.60948 6.94248 5.83333 6.66634 5.83333H5.33301C5.05687 5.83333 4.83301 5.60948 4.83301 5.33333Z"
    fill="#1B1F2C"
  />
  <path
    fill-rule="evenodd"
    clip-rule="evenodd"
    d="M3.5 8C3.5 7.72386 3.72386 7.5 4 7.5L6.66667 7.5C6.94281 7.5 7.16667 7.72386 7.16667 8C7.16667 8.27614 6.94281 8.5 6.66667 8.5H4C3.72386 8.5 3.5 8.27614 3.5 8Z"
    fill="#1B1F2C"
  />
</svg>
