<svg
  width="43"
  height="36"
  viewBox="0 0 43 36"
  fill="none"
  xmlns="http://www.w3.org/2000/svg"
>
  <g clip-path="url(#clip0_4283_9417)">
    <path
      d="M15.3184 21.498L19.0086 22.6924"
      stroke="black"
      stroke-opacity="0.8"
      stroke-linecap="round"
    />
    <path
      d="M24.7744 22.6924L28.4646 21.498"
      stroke="black"
      stroke-opacity="0.8"
      stroke-linecap="round"
    />
    <path
      d="M42.2445 18.5776C39.9939 17.861 39.7308 16.5621 38.927 15.7709C37.2171 14.0242 34.9665 15.5619 34.0749 16.2785C33.1104 10.695 29.179 6.55957 21.9155 6.55957C13.4097 6.55957 9.44922 12.2476 9.44922 19.2943C9.44922 26.3408 13.5413 36.0001 21.9155 36.0001C30.2897 36.0001 34.3818 26.3558 34.3818 19.2943C34.3818 19.2196 34.3818 19.13 34.3818 19.0553C35.9164 19.5032 36.0187 21.2798 36.0187 21.2798C36.0187 21.2798 36.0187 24.8778 39.1316 24.8778C37.9917 22.7279 38.7224 21.6232 38.7224 20.5035C38.7224 19.7869 38.4886 19.2643 38.1816 18.8314C38.9562 19.3988 40.6954 20.2198 42.2445 18.5776ZM31.4151 20.8618C31.4151 22.6085 30.012 24.0716 28.3021 24.4597C27.5714 24.624 24.7215 24.8778 21.8716 24.8778C19.0218 24.8778 16.172 24.6388 15.4412 24.4597C13.7313 24.1164 12.3283 22.6384 12.3283 20.8618V19.966C12.3283 19.0703 13.059 18.3984 13.8629 18.3984C16.5812 18.3984 17.5749 19.1897 21.8425 19.1897C26.1099 19.1897 27.1038 18.3984 29.8221 18.3984C30.6259 18.3984 31.3566 19.115 31.3566 19.966V20.8618H31.4151Z"
      fill="#6D3DF0"
    />
    <path
      d="M12.3156 6.39718C12.0088 6.08367 11.541 6.08367 11.2049 6.39718L10.2404 7.38251L3.41532 0.335908C2.97688 -0.111969 2.3046 -0.111969 1.91001 0.335908L0.696994 1.56011C0.258554 2.00799 0.258554 2.69472 0.696994 3.09782L7.53665 10.0847L6.55747 11.085C6.25056 11.3985 6.25056 11.8762 6.55747 12.2195C6.71823 12.4286 6.89361 12.4883 7.09821 12.4883C7.30282 12.4883 7.50742 12.4137 7.63895 12.2495L8.60352 11.2641L9.97732 12.6675C10.0796 12.4286 10.2111 12.1599 10.3134 11.921L9.14426 10.7267L10.7811 9.02473L11.6872 9.9503C11.848 9.74132 12.0234 9.53233 12.228 9.3681L11.3511 8.47234L12.3156 7.48701C12.6226 7.1735 12.6226 6.69576 12.3156 6.39718ZM4.32143 4.09808H2.77227V2.53051H4.30681V4.09808H4.32143ZM6.26517 6.08367H4.71603V4.5161H6.25056V6.08367H6.26517ZM6.63054 8.06926V6.50169H8.16508V8.06926H6.63054Z"
      fill="#6D3DF0"
    />
  </g>
  <defs>
    <clipPath id="clip0_4283_9417">
      <rect
        width="42.6316"
        height="36"
        fill="white"
        transform="translate(0.368164)"
      />
    </clipPath>
  </defs>
</svg>
