<svg
  width="14"
  height="12"
  viewBox="0 0 14 12"
  fill="none"
  xmlns="http://www.w3.org/2000/svg"
>
  <path
    fill-rule="evenodd"
    clip-rule="evenodd"
    d="M4.64645 6.14645C4.45118 6.34171 4.45118 6.65829 4.64645 6.85355L6.64645 8.85355C6.84171 9.04881 7.15829 9.04881 7.35355 8.85355L9.35355 6.85355C9.54882 6.65829 9.54882 6.34171 9.35355 6.14645C9.15829 5.95118 8.84171 5.95118 8.64645 6.14645L7.5 7.29289L7.5 0.5C7.5 0.223858 7.27614 -1.20706e-08 7 0C6.72386 1.20706e-08 6.5 0.223858 6.5 0.5L6.5 7.29289L5.35355 6.14645C5.15829 5.95118 4.84171 5.95118 4.64645 6.14645Z"
    fill="#2E4E8C"
  />
  <path
    fill-rule="evenodd"
    clip-rule="evenodd"
    d="M3.66667 12C1.91777 12 0.5 10.5822 0.5 8.83333L0.5 6.16667C0.5 4.41777 1.91777 3 3.66667 3L4 3C4.27614 3 4.5 3.22386 4.5 3.5C4.5 3.77614 4.27614 4 4 4L3.66667 4C2.47005 4 1.5 4.97005 1.5 6.16667L1.5 8.83333C1.5 10.03 2.47005 11 3.66667 11L10.3333 11C11.53 11 12.5 10.03 12.5 8.83333V6.16667C12.5 4.97005 11.53 4 10.3333 4H10C9.72386 4 9.5 3.77614 9.5 3.5C9.5 3.22386 9.72386 3 10 3L10.3333 3C12.0822 3 13.5 4.41776 13.5 6.16667V8.83333C13.5 10.5822 12.0822 12 10.3333 12L3.66667 12Z"
    fill="#2E4E8C"
  />
</svg>
