<svg
  width="18"
  height="16"
  viewBox="0 0 18 16"
  fill="none"
  xmlns="http://www.w3.org/2000/svg"
>
  <path
    fill-rule="evenodd"
    clip-rule="evenodd"
    d="M6.05806 8.18306C5.81398 8.42713 5.81398 8.82286 6.05806 9.06694L8.55806 11.5669C8.80214 11.811 9.19786 11.811 9.44194 11.5669L11.9419 9.06694C12.186 8.82286 12.186 8.42713 11.9419 8.18306C11.6979 7.93898 11.3021 7.93898 11.0581 8.18306L9.625 9.61612L9.625 1.125C9.625 0.779822 9.34518 0.5 9 0.5C8.65482 0.5 8.375 0.779822 8.375 1.125L8.375 9.61612L6.94194 8.18306C6.69786 7.93898 6.30214 7.93898 6.05806 8.18306Z"
    fill="white"
  />
  <path
    fill-rule="evenodd"
    clip-rule="evenodd"
    d="M4.83333 15.5C2.64721 15.5 0.875 13.7278 0.875 11.5417L0.875 8.20833C0.875 6.02221 2.64721 4.25 4.83333 4.25L5.25 4.25C5.59518 4.25 5.875 4.52982 5.875 4.875C5.875 5.22018 5.59518 5.5 5.25 5.5L4.83333 5.5C3.33756 5.5 2.125 6.71256 2.125 8.20833L2.125 11.5417C2.125 13.0374 3.33756 14.25 4.83333 14.25L13.1667 14.25C14.6624 14.25 15.875 13.0374 15.875 11.5417V8.20833C15.875 6.71256 14.6624 5.5 13.1667 5.5H12.75C12.4048 5.5 12.125 5.22018 12.125 4.875C12.125 4.52982 12.4048 4.25 12.75 4.25L13.1667 4.25C15.3528 4.25 17.125 6.02221 17.125 8.20833L17.125 11.5417C17.125 13.7278 15.3528 15.5 13.1667 15.5L4.83333 15.5Z"
    fill="white"
  />
</svg>
