<svg
  width="16"
  height="14"
  viewBox="0 0 16 14"
  fill="none"
  xmlns="http://www.w3.org/2000/svg"
>
  <path
    fill-rule="evenodd"
    clip-rule="evenodd"
    d="M7.12365 2.47552C5.91298 1.17483 3.96598 1.17483 2.75531 2.47552C1.52557 3.7967 1.52557 5.9526 2.75531 7.27378L7.3456 12.2054C7.71122 12.5982 8.28813 12.5982 8.65375 12.2054L13.244 7.27378C14.4738 5.95259 14.4738 3.7967 13.244 2.47552C12.0334 1.17483 10.0864 1.17483 8.8757 2.47552L8.36567 3.02348C8.27108 3.1251 8.1385 3.18282 7.99967 3.18282C7.86085 3.18282 7.72827 3.1251 7.63368 3.02348L7.12365 2.47552ZM2.02333 1.7942C3.62949 0.0686003 6.24947 0.0686014 7.85563 1.7942L7.99967 1.94895L8.14371 1.7942C9.74988 0.0686008 12.3699 0.0686014 13.976 1.7942C15.5631 3.4993 15.5631 6.24999 13.976 7.9551L9.38573 12.8867C8.62462 13.7044 7.37473 13.7044 6.61362 12.8867L2.02333 7.9551C0.436234 6.24999 0.436235 3.4993 2.02333 1.7942Z"
    fill="#28303F"
  />
</svg>
