<svg
  width="22"
  height="20"
  viewBox="0 0 22 20"
  fill="none"
  xmlns="http://www.w3.org/2000/svg"
>
  <path
    fill-rule="evenodd"
    clip-rule="evenodd"
    d="M11.1481 2.47638C13.5734 -0.0107613 17.5135 -0.0107645 19.9388 2.47638C22.2892 4.8868 22.3606 8.76334 20.1026 11.2627L14.3762 17.6009C12.5572 19.6144 9.44282 19.6144 7.62374 17.6009L1.89742 11.2627C-0.360654 8.76337 -0.289226 4.88682 2.06123 2.4764C4.4865 -0.010751 8.42666 -0.010748 10.8519 2.4764L10.315 3.00001L10.8519 2.4764L11 2.62825L11.1481 2.47638ZM18.8648 3.5236C17.0283 1.64016 14.0586 1.64017 12.222 3.5236L11.537 4.22613C11.3958 4.37089 11.2022 4.45252 11 4.45252C10.7978 4.45252 10.6042 4.37089 10.463 4.22613L9.77799 3.52362C7.94141 1.64018 4.97174 1.64018 3.13516 3.52361C1.33822 5.3664 1.28222 8.34426 3.01044 10.2572L8.73677 16.5954C9.96025 17.9496 12.0397 17.9496 13.2632 16.5954L18.9896 10.2571C20.7178 8.34423 20.6618 5.36638 18.8648 3.5236ZM15.25 4.49999C15.25 4.08577 15.5858 3.74999 16 3.74999C17.5188 3.74999 18.75 4.9812 18.75 6.49999C18.75 6.9142 18.4142 7.24999 18 7.24999C17.5858 7.24999 17.25 6.9142 17.25 6.49999C17.25 5.80963 16.6903 5.24999 16 5.24999C15.5858 5.24999 15.25 4.9142 15.25 4.49999Z"
    fill="#2E4E8C"
  />
</svg>
