<svg
  width="18"
  height="18"
  viewBox="0 0 18 18"
  fill="none"
  xmlns="http://www.w3.org/2000/svg"
>
  <path
    fill-rule="evenodd"
    clip-rule="evenodd"
    d="M3.16667 0.875C3.51184 0.875 3.79167 1.15482 3.79167 1.5V6.7946C4.75354 7.06665 5.45833 7.95102 5.45833 9C5.45833 10.049 4.75354 10.9333 3.79167 11.2054V16.5C3.79167 16.8452 3.51184 17.125 3.16667 17.125C2.82149 17.125 2.54167 16.8452 2.54167 16.5L2.54167 11.2054C1.57979 10.9333 0.875 10.049 0.875 9C0.875 7.95102 1.57979 7.06665 2.54167 6.7946L2.54167 1.5C2.54167 1.15482 2.82149 0.875 3.16667 0.875ZM9 0.875C9.34518 0.875 9.625 1.15482 9.625 1.5V2.62793C10.5869 2.89998 11.2917 3.78435 11.2917 4.83333C11.2917 6.09899 10.2657 7.125 9 7.125C7.73435 7.125 6.70833 6.09899 6.70833 4.83333C6.70833 3.78435 7.41312 2.89998 8.375 2.62793V1.5C8.375 1.15482 8.65482 0.875 9 0.875ZM14.8333 0.875C15.1785 0.875 15.4583 1.15482 15.4583 1.5V9C15.4583 9.34518 15.1785 9.625 14.8333 9.625C14.4882 9.625 14.2083 9.34518 14.2083 9V1.5C14.2083 1.15482 14.4882 0.875 14.8333 0.875ZM9 3.79167C8.4247 3.79167 7.95833 4.25804 7.95833 4.83333C7.95833 5.40863 8.4247 5.875 9 5.875C9.5753 5.875 10.0417 5.40863 10.0417 4.83333C10.0417 4.25804 9.5753 3.79167 9 3.79167ZM3.16667 7.95833C2.59137 7.95833 2.125 8.4247 2.125 9C2.125 9.5753 2.59137 10.0417 3.16667 10.0417C3.74196 10.0417 4.20833 9.5753 4.20833 9C4.20833 8.4247 3.74196 7.95833 3.16667 7.95833ZM9 8.375C9.34518 8.375 9.625 8.65482 9.625 9V16.5C9.625 16.8452 9.34518 17.125 9 17.125C8.65482 17.125 8.375 16.8452 8.375 16.5V9C8.375 8.65482 8.65482 8.375 9 8.375ZM14.8333 12.125C14.258 12.125 13.7917 12.5914 13.7917 13.1667C13.7917 13.742 14.258 14.2083 14.8333 14.2083C15.4086 14.2083 15.875 13.742 15.875 13.1667C15.875 12.5914 15.4086 12.125 14.8333 12.125ZM12.5417 13.1667C12.5417 11.901 13.5677 10.875 14.8333 10.875C16.099 10.875 17.125 11.901 17.125 13.1667C17.125 14.2156 16.4202 15.1 15.4583 15.3721V16.5C15.4583 16.8452 15.1785 17.125 14.8333 17.125C14.4882 17.125 14.2083 16.8452 14.2083 16.5V15.3721C13.2465 15.1 12.5417 14.2156 12.5417 13.1667Z"
    fill="#2E4E8C"
  />
</svg>
