<svg
  width="16"
  height="16"
  viewBox="0 0 16 16"
  fill="none"
  xmlns="http://www.w3.org/2000/svg"
>
  <path
    fill-rule="evenodd"
    clip-rule="evenodd"
    d="M8 5.83334C7.17157 5.83334 6.5 6.50491 6.5 7.33334C6.5 8.16176 7.17157 8.83334 8 8.83334C8.82843 8.83334 9.5 8.16176 9.5 7.33334C9.5 6.50491 8.82843 5.83334 8 5.83334ZM5.5 7.33334C5.5 5.95262 6.61929 4.83334 8 4.83334C9.38071 4.83334 10.5 5.95262 10.5 7.33334C10.5 8.71405 9.38071 9.83334 8 9.83334C6.61929 9.83334 5.5 8.71405 5.5 7.33334Z"
    fill="#2E4E8C"
  />
  <path
    fill-rule="evenodd"
    clip-rule="evenodd"
    d="M8 1.83334C4.95656 1.83334 2.5 4.26844 2.5 7.25926C2.5 8.72857 3.35662 10.4688 4.53821 11.8676C5.12235 12.5591 5.76693 13.1438 6.38779 13.5516C7.01885 13.9661 7.57741 14.1667 8 14.1667C8.42259 14.1667 8.98115 13.9661 9.61222 13.5516C10.2331 13.1438 10.8776 12.5591 11.4618 11.8676C12.6434 10.4688 13.5 8.72857 13.5 7.25926C13.5 4.26844 11.0434 1.83334 8 1.83334ZM1.5 7.25926C1.5 3.70448 4.41602 0.833336 8 0.833336C11.584 0.833336 14.5 3.70448 14.5 7.25926C14.5 9.06275 13.4816 11.0262 12.2257 12.5129C11.5911 13.2642 10.8763 13.9177 10.1612 14.3874C9.45635 14.8504 8.70241 15.1667 8 15.1667C7.29759 15.1667 6.54365 14.8504 5.83878 14.3874C5.1237 13.9177 4.4089 13.2642 3.77429 12.5129C2.51838 11.0262 1.5 9.06275 1.5 7.25926Z"
    fill="#2E4E8C"
  />
</svg>
