<svg
  width="24"
  height="24"
  viewBox="0 0 24 24"
  fill="none"
  xmlns="http://www.w3.org/2000/svg"
>
  <path
    fill-rule="evenodd"
    clip-rule="evenodd"
    d="M10.1852 8.75678C12.3944 9.82462 14.1778 11.6075 15.246 13.8161C15.4403 14.1982 15.8244 14.4472 16.2527 14.4689H16.4159C16.8442 14.4472 17.2282 14.1982 17.4226 13.8161C18.4908 11.6075 20.2742 9.82462 22.4834 8.75678C22.8656 8.56245 23.1147 8.17855 23.1364 7.75036V7.58716C23.1147 7.15898 22.8656 6.77508 22.4834 6.58074C20.2887 5.51487 18.516 3.74267 17.4498 1.54866C17.2363 1.12903 16.8052 0.864746 16.3343 0.864746C15.8634 0.864746 15.4323 1.12903 15.2188 1.54866C14.1526 3.74267 12.3799 5.51487 10.1852 6.58074C9.80296 6.77508 9.55387 7.15898 9.53223 7.58716V7.75036C9.55387 8.17855 9.80296 8.56245 10.1852 8.75678ZM5.42991 4.57346C4.56394 4.15877 3.86376 3.46328 3.44324 2.60012C3.35598 2.43784 3.18749 2.33572 3.00324 2.33346C2.819 2.33572 2.65051 2.43784 2.56324 2.60012C2.14785 3.46235 1.45213 4.15806 0.58991 4.57346C0.416795 4.63979 0.311945 4.81638 0.336577 5.00012C0.330458 5.1697 0.431999 5.32468 0.58991 5.38679C1.45681 5.8066 2.15677 6.50655 2.57658 7.37346C2.64348 7.55082 2.81368 7.66784 3.00324 7.66679C3.17066 7.66679 3.32446 7.57451 3.40324 7.42679C3.81955 6.5574 4.52052 5.85643 5.38991 5.44012C5.56671 5.3672 5.67873 5.19117 5.66991 5.00012C5.68018 4.82322 5.58642 4.65655 5.42991 4.57346ZM8.46634 23.3487C7.9429 22.2661 7.06895 21.3921 5.98634 20.8687C5.79901 20.7734 5.67695 20.5853 5.66634 20.3754V20.2954C5.67695 20.0855 5.79901 19.8973 5.98634 19.802C7.06182 19.2796 7.93053 18.4108 8.45301 17.3354C8.55765 17.1297 8.76889 17.0001 8.99967 17.0001C9.23046 17.0001 9.4417 17.1297 9.54634 17.3354C10.0688 18.4108 10.9375 19.2796 12.013 19.802C12.2003 19.8973 12.3224 20.0855 12.333 20.2954V20.3754C12.3224 20.5853 12.2003 20.7734 12.013 20.8687C10.9304 21.3921 10.0565 22.2661 9.53301 23.3487C9.43775 23.536 9.24956 23.6581 9.03967 23.6687H8.95967C8.74978 23.6581 8.5616 23.536 8.46634 23.3487Z"
    fill="#2E4E8C"
  />
</svg>
