<svg
  width="20"
  height="20"
  viewBox="0 0 20 20"
  fill="none"
  xmlns="http://www.w3.org/2000/svg"
>
  <path
    fill-rule="evenodd"
    clip-rule="evenodd"
    d="M13 0.250032L19 0.250031C19.4142 0.25003 19.75 0.585816 19.75 1.00003L19.75 7.00002C19.75 7.41424 19.4142 7.75002 19 7.75002C18.5858 7.75002 18.25 7.41424 18.25 7.00002L18.25 2.81069L8.53033 12.5304C8.23744 12.8232 7.76256 12.8232 7.46967 12.5304C7.17678 12.2375 7.17678 11.7626 7.46967 11.4697L17.1893 1.75003L13 1.75003C12.5858 1.75003 12.25 1.41425 12.25 1.00003C12.25 0.585818 12.5858 0.250032 13 0.250032Z"
    fill="#2E4E8C"
  />
  <path
    fill-rule="evenodd"
    clip-rule="evenodd"
    d="M0.25 7C0.25 4.37665 2.37665 2.25 5 2.25H10C10.4142 2.25 10.75 2.58579 10.75 3C10.75 3.41421 10.4142 3.75 10 3.75H5C3.20507 3.75 1.75 5.20507 1.75 7V15C1.75 16.7949 3.20507 18.25 5 18.25H13C14.7949 18.25 16.25 16.7949 16.25 15V10C16.25 9.58579 16.5858 9.25 17 9.25C17.4142 9.25 17.75 9.58579 17.75 10V15C17.75 17.6234 15.6234 19.75 13 19.75H5C2.37665 19.75 0.25 17.6234 0.25 15V7Z"
    fill="#2E4E8C"
  />
</svg>
