<svg
  width="40"
  height="26"
  viewBox="0 0 40 26"
  fill="none"
  xmlns="http://www.w3.org/2000/svg"
>
  <g clip-path="url(#clip0_4283_9366)">
    <path
      d="M0 3.25C0 1.45507 1.49238 0 3.33333 0H36.6667C38.5076 0 40 1.45507 40 3.25V22.75C40 24.5449 38.5076 26 36.6667 26H3.33333C1.49238 26 0 24.5449 0 22.75V3.25Z"
      fill="#FDEACE"
    />
    <path
      d="M24.1619 5.30294L15.5654 5.33008L15.8373 20.696L24.4338 20.6689L24.1619 5.30294Z"
      fill="#FF5F00"
    />
    <path
      d="M16.1283 13.0455C16.0727 9.92006 17.5052 7.14325 19.7507 5.34234C18.0538 4.04305 15.927 3.26153 13.6221 3.26877C8.1618 3.28592 3.82188 7.67547 3.91798 13.0839C4.01407 18.4923 8.50947 22.8541 13.9698 22.8369C16.2747 22.8297 18.3734 22.0349 20.024 20.7251C17.7152 18.9657 16.1838 16.171 16.1283 13.0455Z"
      fill="#EB001B"
    />
    <path
      d="M36.0817 12.9146C36.1778 18.323 31.8379 22.7125 26.3776 22.7297C24.0727 22.7369 21.9459 21.9554 20.249 20.6561C22.522 18.8552 23.927 16.0784 23.8714 12.9529C23.8159 9.82747 22.285 7.05997 19.9757 5.27338C21.6263 3.96357 23.725 3.16877 26.0299 3.16152C31.4902 3.14437 35.9861 7.53333 36.0817 12.9146Z"
      fill="#F79E1B"
    />
  </g>
  <defs>
    <clipPath id="clip0_4283_9366">
      <rect width="40" height="26" fill="white" />
    </clipPath>
  </defs>
</svg>
