<svg
  width="40"
  height="26"
  viewBox="0 0 40 26"
  fill="none"
  xmlns="http://www.w3.org/2000/svg"
>
  <g clip-path="url(#clip0_4283_9351)">
    <path
      d="M0 3.25C0 1.45507 1.49238 0 3.33333 0H36.6667C38.5076 0 40 1.45507 40 3.25V22.75C40 24.5449 38.5076 26 36.6667 26H3.33333C1.49238 26 0 24.5449 0 22.75V3.25Z"
      fill="#D8E3F3"
    />
    <path
      d="M34.4248 8.15332H32.3293C31.6957 8.15332 31.2084 8.34338 30.916 8.96107L26.9199 17.8463H29.7464C29.7464 17.8463 30.2338 16.6584 30.3312 16.3734C30.6236 16.3734 33.4014 16.3734 33.7913 16.3734C33.8887 16.706 34.1324 17.7988 34.1324 17.7988H36.6665L34.4248 8.15332ZM31.111 14.3777C31.3546 13.8076 32.1831 11.6694 32.1831 11.6694C32.1831 11.7169 32.4267 11.0992 32.5242 10.7666L32.7191 11.6219C32.7191 11.6219 33.2552 13.9501 33.3527 14.4253H31.111V14.3777Z"
      fill="#3362AB"
    />
    <path
      d="M27.1147 14.6628C27.1147 16.6584 25.2629 17.9888 22.3877 17.9888C21.1693 17.9888 19.9997 17.7512 19.3662 17.4662L19.7561 15.2805L20.0972 15.423C20.9744 15.8031 21.5592 15.9457 22.6313 15.9457C23.411 15.9457 24.2395 15.6606 24.2395 14.9954C24.2395 14.5678 23.8984 14.2827 22.8262 13.8075C21.8029 13.3324 20.4383 12.5721 20.4383 11.1942C20.4383 9.29364 22.3389 8.01074 25.0192 8.01074C26.0426 8.01074 26.9198 8.2008 27.4559 8.43837L27.066 10.529L26.8711 10.339C26.3838 10.1489 25.7502 9.95884 24.8243 9.95884C23.8009 10.0064 23.3136 10.434 23.3136 10.8141C23.3136 11.2417 23.8984 11.5743 24.8243 12.002C26.3838 12.7147 27.1147 13.5224 27.1147 14.6628Z"
      fill="#3362AB"
    />
    <path
      d="M3.33301 8.24865L3.38174 8.05859H7.57277C8.15757 8.05859 8.59617 8.24865 8.74236 8.86634L9.66829 13.1427C8.74236 10.862 6.59811 9.00889 3.33301 8.24865Z"
      fill="#F9B50B"
    />
    <path
      d="M15.5653 8.15298L11.3256 17.7985H8.45032L6.01367 9.72097C7.76806 10.8138 9.23005 12.5243 9.76611 13.7122L10.0585 14.71L12.6901 8.10547H15.5653V8.15298Z"
      fill="#3362AB"
    />
    <path
      d="M16.6861 8.10547H19.3664L17.6608 17.7985H14.9805L16.6861 8.10547Z"
      fill="#3362AB"
    />
  </g>
  <defs>
    <clipPath id="clip0_4283_9351">
      <rect width="40" height="26" fill="white" />
    </clipPath>
  </defs>
</svg>
