<svg
  width="40"
  height="26"
  viewBox="0 0 40 26"
  fill="none"
  xmlns="http://www.w3.org/2000/svg"
>
  <g clip-path="url(#clip0_4283_9359)">
    <path
      d="M0 3.25C0 1.45507 1.49238 0 3.33333 0H36.6667C38.5076 0 40 1.45507 40 3.25V22.75C40 24.5449 38.5076 26 36.6667 26H3.33333C1.49238 26 0 24.5449 0 22.75V3.25Z"
      fill="#DCEFDC"
    />
    <path
      d="M33.2397 8.29199H26.8223C27.1961 10.3574 29.2522 12.3013 31.4952 12.3013H36.6042C36.6665 12.1191 36.6665 11.8154 36.6665 11.6331C36.6665 9.81068 35.1089 8.29199 33.2397 8.29199Z"
      fill="url(#paint0_linear_4283_9359)"
    />
    <path
      d="M27.3828 12.666V17.7081H30.4981V15.0352H33.2395C34.7348 15.0352 36.0433 14.0025 36.4794 12.666H27.3828Z"
      fill="#4FAD50"
    />
    <path
      d="M16.417 8.29199V17.6471H19.1584C19.1584 17.6471 19.8438 17.6471 20.2176 16.9789C22.0868 13.3948 22.6475 12.3013 22.6475 12.3013H23.0214V17.6471H26.1366V8.29199H23.3952C23.3952 8.29199 22.7098 8.35274 22.336 8.96022C20.7784 12.0584 19.9061 13.6378 19.9061 13.6378H19.5323V8.29199H16.417Z"
      fill="#4FAD50"
    />
    <path
      d="M3.33301 17.7077V8.35254H6.44827C6.44827 8.35254 7.32055 8.35254 7.819 9.68899C9.0651 13.2124 9.18972 13.6983 9.18972 13.6983C9.18972 13.6983 9.43893 12.8479 10.5604 9.68899C11.0589 8.35254 11.9312 8.35254 11.9312 8.35254H15.0464V17.7077H11.9312V12.6656H11.5573L9.81277 17.7077H8.44205L6.69751 12.6656H6.32367V17.7077H3.33301Z"
      fill="#4FAD50"
    />
  </g>
  <defs>
    <linearGradient
      id="paint0_linear_4283_9359"
      x1="26.8112"
      y1="10.3254"
      x2="36.6444"
      y2="10.3254"
      gradientUnits="userSpaceOnUse"
    >
      <stop stop-color="#27B1E6" />
      <stop offset="1" stop-color="#148ACA" />
    </linearGradient>
    <clipPath id="clip0_4283_9359">
      <rect width="40" height="26" fill="white" />
    </clipPath>
  </defs>
</svg>
