<svg
  width="28"
  height="22"
  viewBox="0 0 28 22"
  fill="none"
  xmlns="http://www.w3.org/2000/svg"
>
  <path
    fill-rule="evenodd"
    clip-rule="evenodd"
    d="M20.667 0.33355C24.3489 0.33355 27.3337 3.31832 27.3337 7.00022C27.3395 8.44363 26.8711 9.849 26.0003 11.0002V19.0002C26.0003 20.473 24.8064 21.6669 23.3337 21.6669H3.33366C1.8609 21.6669 0.666992 20.473 0.666992 19.0002V4.33355C0.666992 2.86079 1.8609 1.66688 3.33366 1.66688H16.667C17.8182 0.796158 19.2236 0.327703 20.667 0.33355ZM3.33366 4.33355H14.5603C14.1898 5.17369 13.9991 6.08201 14.0003 7.00022C14.0038 7.44781 14.0484 7.89414 14.1337 8.33355H3.33366V4.33355ZM3.33366 12.3336V19.0002H23.3337V13.1069C21.1374 14.0884 18.5803 13.7918 16.667 12.3336H3.33366ZM23.4643 3.80001C23.6378 3.62243 23.9154 3.62243 24.0889 3.80001L24.535 4.29388C24.6195 4.38136 24.667 4.50045 24.667 4.62467C24.667 4.7489 24.6195 4.86799 24.535 4.95547L19.5204 10.1923C19.4395 10.2824 19.3264 10.3335 19.2081 10.3335C19.0898 10.3335 18.9768 10.2824 18.8958 10.1923L16.799 7.98389C16.7145 7.89641 16.667 7.77732 16.667 7.65309C16.667 7.52886 16.7145 7.40978 16.799 7.3223L17.2719 6.82843C17.3528 6.73835 17.4659 6.68724 17.5842 6.68724C17.7025 6.68724 17.8155 6.73835 17.8965 6.82843L19.2349 8.21685L23.4643 3.80001Z"
    fill="#2E4E8C"
  />
</svg>
