<svg
  width="16"
  height="16"
  viewBox="0 0 16 16"
  fill="none"
  xmlns="http://www.w3.org/2000/svg"
>
  <path
    fill-rule="evenodd"
    clip-rule="evenodd"
    d="M14.9959 11.6237C15.2037 11.8056 15.2248 12.1214 15.0429 12.3293L13.1297 14.5159C12.7185 14.9857 12.0104 15.0486 11.5228 14.6586L10.3543 13.7238C10.1387 13.5513 10.1037 13.2366 10.2762 13.021C10.4487 12.8054 10.7634 12.7704 10.979 12.9429L12.1475 13.8777C12.2172 13.9335 12.3184 13.9245 12.3771 13.8574L14.2904 11.6708C14.4722 11.4629 14.7881 11.4419 14.9959 11.6237Z"
    fill="#28303F"
  />
  <path
    fill-rule="evenodd"
    clip-rule="evenodd"
    d="M15.1667 4C15.1667 3.72386 14.9428 3.5 14.6667 3.5H4.00002C2.25112 3.5 0.833353 4.91777 0.833353 6.66667V12C0.833353 13.7489 2.25112 15.1667 4.00002 15.1667H8.66669C8.94283 15.1667 9.16669 14.9428 9.16669 14.6667C9.16669 14.3905 8.94283 14.1667 8.66669 14.1667H4.00002C2.8034 14.1667 1.83335 13.1966 1.83335 12V6.66667C1.83335 5.47005 2.8034 4.5 4.00002 4.5H14.1667V9.33333C14.1667 9.60948 14.3905 9.83333 14.6667 9.83333C14.9428 9.83333 15.1667 9.60948 15.1667 9.33333V4Z"
    fill="#28303F"
  />
  <path
    fill-rule="evenodd"
    clip-rule="evenodd"
    d="M15.1667 4.00001C15.1667 2.25111 13.7489 0.833344 12 0.833344H8.00002C6.25112 0.833344 4.83335 2.25111 4.83335 4.00001H5.33335V4.50001H14.6667C14.9428 4.50001 15.1667 4.27615 15.1667 4.00001ZM14.1087 3.50001H5.89133C6.11705 2.54444 6.97549 1.83334 8.00002 1.83334H12C13.0245 1.83334 13.883 2.54444 14.1087 3.50001Z"
    fill="#28303F"
  />
</svg>
