<svg
  width="26"
  height="30"
  viewBox="0 0 26 30"
  fill="none"
  xmlns="http://www.w3.org/2000/svg"
>
  <path
    d="M25.35 6.65L19.35 0.650004C19.3054 0.601967 19.2512 0.563805 19.1909 0.537971C19.1306 0.512138 19.0656 0.499205 19 0.500004H4.43C3.91894 0.502632 3.42956 0.706814 3.06819 1.06819C2.70681 1.42957 2.50263 1.91895 2.5 2.43V12C2.5 12.1326 2.55268 12.2598 2.64645 12.3536C2.74021 12.4473 2.86739 12.5 3 12.5C3.13261 12.5 3.25979 12.4473 3.35355 12.3536C3.44732 12.2598 3.5 12.1326 3.5 12V2.43C3.5 2.18335 3.59798 1.9468 3.77239 1.7724C3.9468 1.59799 4.18335 1.5 4.43 1.5H18.5V7C18.5 7.13261 18.5527 7.25979 18.6464 7.35356C18.7402 7.44733 18.8674 7.5 19 7.5H24.5V27.57C24.5 27.8167 24.402 28.0532 24.2276 28.2276C24.0532 28.402 23.8167 28.5 23.57 28.5H4.43C4.18335 28.5 3.9468 28.402 3.77239 28.2276C3.59798 28.0532 3.5 27.8167 3.5 27.57V25C3.5 24.8674 3.44732 24.7402 3.35355 24.6465C3.25979 24.5527 3.13261 24.5 3 24.5C2.86739 24.5 2.74021 24.5527 2.64645 24.6465C2.55268 24.7402 2.5 24.8674 2.5 25V27.57C2.50263 28.0811 2.70681 28.5704 3.06819 28.9318C3.42956 29.2932 3.91894 29.4974 4.43 29.5H23.57C24.0811 29.4974 24.5704 29.2932 24.9318 28.9318C25.2932 28.5704 25.4974 28.0811 25.5 27.57V7C25.5008 6.93443 25.4879 6.86941 25.462 6.80913C25.4362 6.74886 25.398 6.69465 25.35 6.65ZM19.5 2.21L23.79 6.5H19.5V2.21Z"
    fill="#8F9194"
  />
  <path
    d="M10.6613 16.71H9.78125V20.28H10.7812C11.3067 20.3148 11.8265 20.1545 12.2413 19.83C12.4145 19.6567 12.5488 19.4484 12.635 19.2191C12.7212 18.9897 12.7575 18.7445 12.7413 18.5C12.7113 17.3 12.0013 16.71 10.6613 16.71Z"
    fill="#C42100"
  />
  <path
    d="M5.57188 16.69H4.67188V18.78H5.67188C5.84882 18.8028 6.02854 18.7897 6.20033 18.7416C6.37213 18.6935 6.53249 18.6113 6.67188 18.5C6.7787 18.3921 6.86292 18.2641 6.91958 18.1233C6.97625 17.9825 7.00423 17.8317 7.00187 17.68C7.01498 17.5333 6.99066 17.3858 6.93119 17.2511C6.87173 17.1165 6.77906 16.9991 6.66187 16.91C6.32664 16.7351 5.9487 16.6588 5.57188 16.69Z"
    fill="#C42100"
  />
  <path
    d="M21.5 21.88V15.12C21.5014 14.9069 21.4604 14.6956 21.3794 14.4985C21.2985 14.3013 21.1792 14.1222 21.0285 13.9715C20.8778 13.8208 20.6987 13.7016 20.5015 13.6206C20.3044 13.5397 20.0931 13.4987 19.88 13.5H2.12003C1.90692 13.4987 1.69566 13.5397 1.49852 13.6206C1.30137 13.7016 1.12225 13.8208 0.971558 13.9715C0.820862 14.1222 0.701584 14.3013 0.620642 14.4985C0.539699 14.6956 0.498703 14.9069 0.500031 15.12V21.88C0.498703 22.0931 0.539699 22.3044 0.620642 22.5015C0.701584 22.6987 0.820862 22.8778 0.971558 23.0285C1.12225 23.1792 1.30137 23.2984 1.49852 23.3794C1.69566 23.4603 1.90692 23.5013 2.12003 23.5H19.88C20.0931 23.5013 20.3044 23.4603 20.5015 23.3794C20.6987 23.2984 20.8778 23.1792 21.0285 23.0285C21.1792 22.8778 21.2985 22.6987 21.3794 22.5015C21.4604 22.3044 21.5014 22.0931 21.5 21.88ZM7.30003 19.14C6.7976 19.4706 6.19976 19.6253 5.60003 19.58H4.67003V21.11H3.79003V15.89H5.58003C6.19289 15.8346 6.80562 15.9975 7.31003 16.35C7.50296 16.5255 7.65292 16.7431 7.74829 16.9859C7.84367 17.2286 7.8819 17.4901 7.86003 17.75C7.88063 18.0092 7.84078 18.2697 7.7436 18.5109C7.64643 18.7521 7.49458 18.9675 7.30003 19.14ZM12.87 20.4C12.2434 20.9177 11.4404 21.1722 10.63 21.11H8.90003V15.89H10.69C11.4683 15.8385 12.237 16.0852 12.84 16.58C13.0965 16.8209 13.2973 17.1147 13.4286 17.4411C13.5598 17.7676 13.6184 18.1187 13.6 18.47C13.6171 18.8246 13.5611 19.1788 13.4355 19.5108C13.31 19.8428 13.1175 20.1455 12.87 20.4ZM18.2 16.71H15.61V18.15H17.92V19H15.61V21.15H14.73V15.89H18.21L18.2 16.71Z"
    fill="#C42100"
  />
</svg>
