<svg
  width="14"
  height="14"
  viewBox="0 0 14 14"
  fill="none"
  xmlns="http://www.w3.org/2000/svg"
>
  <path
    d="M5.68822 1.18086C6.22467 0.0507174 7.77467 0.0507153 8.31113 1.18086L9.23827 3.13404C9.4513 3.58282 9.86308 3.89388 10.3394 3.96584L12.4126 4.27905C13.6121 4.46027 14.0911 5.99295 13.2231 6.87264L11.723 8.39298C11.3783 8.74231 11.221 9.24561 11.3023 9.73887L11.6565 11.8856C11.8614 13.1278 10.6074 14.075 9.5345 13.4885L7.68023 12.475C7.25417 12.2421 6.74518 12.2421 6.31912 12.475L4.46485 13.4885C3.39194 14.075 2.13796 13.1278 2.34287 11.8856L2.697 9.73887C2.77837 9.24561 2.62108 8.74231 2.2764 8.39298L0.776258 6.87264C-0.0917481 5.99295 0.387227 4.46027 1.58678 4.27905L3.65992 3.96584C4.13627 3.89388 4.54805 3.58282 4.76108 3.13404L5.68822 1.18086Z"
    fill="#F7C70A"

  />
</svg>
