<svg
  width="14"
  height="14"
  viewBox="0 0 14 14"
  fill="none"
  xmlns="http://www.w3.org/2000/svg"
>
  <path
    fill-rule="evenodd"
    clip-rule="evenodd"
    d="M5.35943 1.38715C6.02674 -0.0178818 7.9731 -0.0178866 8.64041 1.38715L9.50305 3.20344C9.6374 3.48631 9.89221 3.67361 10.1768 3.71659L12.1057 4.00784C13.6222 4.23682 14.1787 6.13519 13.1215 7.20597L11.7258 8.61975C11.5119 8.83636 11.4103 9.15393 11.4623 9.46907L11.7918 11.4654C12.0386 12.9607 10.5106 14.191 9.13527 13.4396L7.40999 12.4971C7.15262 12.3565 6.84721 12.3565 6.58984 12.4971L4.86457 13.4396C3.48921 14.191 1.96125 12.9607 2.20807 11.4654L2.53756 9.46907C2.58958 9.15393 2.48793 8.83636 2.27408 8.61975L0.878309 7.20597C-0.178824 6.1352 0.377602 4.23682 1.8941 4.00784L3.82302 3.71659C4.10763 3.67361 4.36244 3.48631 4.49679 3.20344L5.35943 1.38715ZM7.79987 1.78592C7.46891 1.08908 6.53093 1.08908 6.19997 1.78592L5.33733 3.6022C5.07526 4.15399 4.56381 4.5452 3.96201 4.63607L2.03309 4.92732C1.31738 5.03539 0.982502 5.98753 1.54061 6.55283L2.93638 7.96662C3.36395 8.3997 3.55499 9.01818 3.45559 9.62042L3.12609 11.6167C2.9916 12.4315 3.79712 12.963 4.41831 12.6236L6.14358 11.6811C6.67904 11.3886 7.3208 11.3886 7.85626 11.6811L9.58153 12.6236C10.2027 12.963 11.0082 12.4315 10.8737 11.6167L10.5442 9.62042C10.4448 9.01818 10.6359 8.3997 11.0635 7.96662L12.4592 6.55283C13.0173 5.98753 12.6825 5.03539 11.9667 4.92732L10.0378 4.63607C9.43603 4.5452 8.92457 4.15399 8.66251 3.6022L7.79987 1.78592Z"
    fill="#F7C70A"
  />
</svg>
