<svg
  xmlns="http://www.w3.org/2000/svg"
  width="16"
  height="16"
  viewBox="0 0 16 16"
  fill="none"
>
  <g clip-path="url(#clip0_4156_6965)">
    <path
      fill-rule="evenodd"
      clip-rule="evenodd"
      d="M0.833008 7.66667C0.833008 3.89272 3.8924 0.833334 7.66634 0.833334C11.4403 0.833334 14.4997 3.89272 14.4997 7.66667C14.4997 9.37368 13.8738 10.9345 12.8389 12.1321L15.0199 14.3131C15.2152 14.5084 15.2152 14.825 15.0199 15.0202C14.8246 15.2155 14.5081 15.2155 14.3128 15.0202L12.1318 12.8392C10.9342 13.8741 9.37335 14.5 7.66634 14.5C3.8924 14.5 0.833008 11.4406 0.833008 7.66667ZM7.66634 1.83333C4.44468 1.83333 1.83301 4.44501 1.83301 7.66667C1.83301 10.8883 4.44468 13.5 7.66634 13.5C10.888 13.5 13.4997 10.8883 13.4997 7.66667C13.4997 4.44501 10.888 1.83333 7.66634 1.83333Z"
      fill="#8F9194"
    />
  </g>
  <defs>
    <clipPath id="clip0_4156_6965">
      <rect width="16" height="16" fill="white" />
    </clipPath>
  </defs>
</svg>
