<svg
  width="26"
  height="26"
  viewBox="0 0 26 26"
  fill="none"
  xmlns="http://www.w3.org/2000/svg"
>
  <path
    fill-rule="evenodd"
    clip-rule="evenodd"
    d="M20.0409 17.9909L25.8188 23.7757C26.0768 24.0627 26.0641 24.5021 25.7899 24.7736L24.7788 25.7859C24.6432 25.9228 24.4586 25.9998 24.266 25.9998C24.0734 25.9998 23.8888 25.9228 23.7532 25.7859L17.9754 20.0011C17.8156 19.841 17.6705 19.6667 17.542 19.4805L16.4587 18.0343C14.6662 19.4674 12.4402 20.2477 10.1464 20.247C5.41952 20.2634 1.31207 16.9988 0.255745 12.3859C-0.800581 7.77304 1.47614 3.04297 5.73801 0.996066C9.99989 -1.05084 15.1095 0.131698 18.0418 3.84359C20.9741 7.55547 20.9465 12.8061 17.9754 16.4869L19.4198 17.4847C19.6454 17.6293 19.8538 17.7991 20.0409 17.9909ZM2.92311 10.1237C2.92311 14.1173 6.15665 17.3547 10.1454 17.3547C12.0609 17.3547 13.8979 16.5929 15.2524 15.2368C16.6068 13.8807 17.3677 12.0415 17.3677 10.1237C17.3677 6.13009 14.1342 2.89265 10.1454 2.89265C6.15665 2.89265 2.92311 6.13009 2.92311 10.1237Z"
    fill="#2E4E8C"
  />
</svg>
