<svg
  width="26"
  height="28"
  viewBox="0 0 26 28"
  fill="none"
  xmlns="http://www.w3.org/2000/svg"
>
  <path
    fill-rule="evenodd"
    clip-rule="evenodd"
    d="M23.9338 16.7653L25.0004 17.6471C25.5065 18.0583 25.6419 18.7759 25.3204 19.3438L23.7738 22.0158C23.4539 22.5361 22.8225 22.7727 22.2404 22.5903L20.9071 22.1093C20.1202 21.8147 19.2408 21.9087 18.5338 22.3632C18.2203 22.5801 17.8904 22.7722 17.5471 22.9376C16.7968 23.3232 16.2727 24.0415 16.1338 24.8748L15.9071 26.2108C15.8015 26.8642 15.2343 27.3416 14.5738 27.3331H11.5071C10.8466 27.3416 10.2794 26.8642 10.1738 26.2108L9.9471 24.8748C9.80813 24.0415 9.28403 23.3232 8.53376 22.9376C8.19043 22.7722 7.86054 22.5801 7.5471 22.3632C6.84004 21.9087 5.96062 21.8147 5.17376 22.1093L3.84043 22.5903C3.23477 22.8158 2.55493 22.5737 2.2271 22.0158L0.680431 19.3438C0.358998 18.7759 0.494325 18.0583 1.00043 17.6471L2.0671 16.7653C2.71383 16.2274 3.0696 15.4154 3.0271 14.5743V13.9998V13.4254C3.0696 12.5842 2.71383 11.7723 2.0671 11.2343L1.00043 10.3526C0.494325 9.94133 0.358998 9.2238 0.680431 8.65586L2.2271 5.98387C2.55248 5.43883 3.21583 5.19866 3.81376 5.4094L5.1471 5.89035C5.93395 6.18501 6.81338 6.09096 7.52043 5.63651C7.83387 5.41954 8.16377 5.22746 8.5071 5.06204C9.23689 4.66389 9.73975 3.94762 9.8671 3.12485L10.0938 1.78885C10.1994 1.13547 10.7666 0.658098 11.4271 0.666616H14.4938C15.1543 0.658098 15.7215 1.13547 15.8271 1.78885L16.0538 3.12485C16.1927 3.95815 16.7168 4.67651 17.4671 5.06204C17.8104 5.22746 18.1403 5.41954 18.4538 5.63651C19.1608 6.09096 20.0402 6.18501 20.8271 5.89035L22.1604 5.4094C22.7661 5.18392 23.4459 5.426 23.7738 5.98387L25.3204 8.65586C25.6419 9.2238 25.5065 9.94133 25.0004 10.3526L23.9338 11.2343C23.287 11.7723 22.9313 12.5842 22.9738 13.4254V13.9998V14.5743C22.9313 15.4154 23.287 16.2274 23.9338 16.7653ZM9.00043 13.9998C9.00043 16.2134 10.7913 18.0078 13.0004 18.0078C14.0613 18.0078 15.0787 17.5856 15.8289 16.8339C16.579 16.0823 17.0004 15.0628 17.0004 13.9998C17.0004 11.7863 15.2096 9.99185 13.0004 9.99185C10.7913 9.99185 9.00043 11.7863 9.00043 13.9998Z"
    fill="#2E4E8C"
  />
</svg>
