<svg
  width="16"
  height="16"
  viewBox="0 0 16 16"
  fill="none"
  xmlns="http://www.w3.org/2000/svg"
>
  <path
    fill-rule="evenodd"
    clip-rule="evenodd"
    d="M12.3334 1.83333C11.3209 1.83333 10.5 2.65414 10.5 3.66666C10.5 3.96234 10.5697 4.24032 10.693 4.48643C10.9946 5.08847 11.6164 5.5 12.3334 5.5C13.3459 5.5 14.1667 4.67918 14.1667 3.66666C14.1667 2.65414 13.3459 1.83333 12.3334 1.83333ZM9.50004 3.66666C9.50004 2.10185 10.7686 0.833328 12.3334 0.833328C13.8982 0.833328 15.1667 2.10185 15.1667 3.66666C15.1667 5.23147 13.8982 6.5 12.3334 6.5C11.4034 6.5 10.5787 6.05188 10.0625 5.36114L6.3853 7.19971C6.46001 7.45382 6.50004 7.7225 6.50004 8C6.50004 8.27749 6.46001 8.54617 6.3853 8.80028L10.0625 10.6389C10.5787 9.94811 11.4034 9.5 12.3334 9.5C13.8982 9.5 15.1667 10.7685 15.1667 12.3333C15.1667 13.8981 13.8982 15.1667 12.3334 15.1667C10.7686 15.1667 9.50004 13.8981 9.50004 12.3333C9.50004 12.0558 9.54007 11.7872 9.61478 11.533L5.93762 9.69447C5.42139 10.3852 4.5967 10.8333 3.66671 10.8333C2.1019 10.8333 0.833374 9.5648 0.833374 8C0.833374 6.43519 2.1019 5.16666 3.66671 5.16666C4.5967 5.16666 5.42139 5.61478 5.93762 6.30552L9.61478 4.46694C9.54007 4.21284 9.50004 3.94416 9.50004 3.66666ZM3.66671 6.16666C2.65419 6.16666 1.83337 6.98747 1.83337 8C1.83337 9.01252 2.65419 9.83333 3.66671 9.83333C4.38372 9.83333 5.00552 9.4218 5.30712 8.81977C5.43042 8.57366 5.50004 8.29568 5.50004 8C5.50004 7.70431 5.43042 7.42634 5.30712 7.18022C5.00552 6.57819 4.38372 6.16666 3.66671 6.16666ZM12.3334 10.5C11.6164 10.5 10.9946 10.9115 10.693 11.5136C10.5697 11.7597 10.5 12.0376 10.5 12.3333C10.5 13.3459 11.3209 14.1667 12.3334 14.1667C13.3459 14.1667 14.1667 13.3459 14.1667 12.3333C14.1667 11.3208 13.3459 10.5 12.3334 10.5Z"
    fill="#414244"
  />
</svg>
