<svg
  width="18"
  height="12"
  viewBox="0 0 18 12"
  fill="none"
  xmlns="http://www.w3.org/2000/svg"
>
  <path
    fill-rule="evenodd"
    clip-rule="evenodd"
    d="M4.00001 0.375C4.34519 0.375 4.62501 0.654822 4.62501 1V10.1584C4.67967 10.1172 4.73117 10.07 4.77856 10.0167L6.03288 8.60561C6.2622 8.34762 6.65725 8.32438 6.91523 8.5537C7.17322 8.78303 7.19646 9.17807 6.96714 9.43606L5.71282 10.8472C5.2865 11.3268 4.7091 11.5821 4.12192 11.6131C4.08249 11.6209 4.04173 11.625 4.00001 11.625C3.95829 11.625 3.91752 11.6209 3.87809 11.6131C3.29091 11.5821 2.71351 11.3268 2.28719 10.8472L1.03288 9.43606C0.803552 9.17807 0.82679 8.78303 1.08478 8.5537C1.34277 8.32438 1.73781 8.34762 1.96714 8.60561L3.22145 10.0167C3.26884 10.07 3.32034 10.1172 3.37501 10.1584V1C3.37501 0.654822 3.65483 0.375 4.00001 0.375ZM8.37501 1C8.37501 0.654822 8.65483 0.375 9.00001 0.375H16.5C16.8452 0.375 17.125 0.654822 17.125 1C17.125 1.34518 16.8452 1.625 16.5 1.625H9.00001C8.65483 1.625 8.37501 1.34518 8.37501 1ZM8.37501 6C8.37501 5.65482 8.65483 5.375 9.00001 5.375H14C14.3452 5.375 14.625 5.65482 14.625 6C14.625 6.34518 14.3452 6.625 14 6.625H9.00001C8.65483 6.625 8.37501 6.34518 8.37501 6ZM8.37501 11C8.37501 10.6548 8.65483 10.375 9.00001 10.375H11.5C11.8452 10.375 12.125 10.6548 12.125 11C12.125 11.3452 11.8452 11.625 11.5 11.625H9.00001C8.65483 11.625 8.37501 11.3452 8.37501 11Z"
    fill="#2E4E8C"
  />
</svg>
