<svg
  width="41"
  height="40"
  viewBox="0 0 41 40"
  fill="none"
  xmlns="http://www.w3.org/2000/svg"
>
  <path
    fill-rule="evenodd"
    clip-rule="evenodd"
    d="M2.5835 20C2.5835 10.1049 10.6051 2.08334 20.5002 2.08334C30.3953 2.08334 38.4168 10.1049 38.4168 20C38.4168 29.8951 30.3953 37.9167 20.5002 37.9167C10.6051 37.9167 2.5835 29.8951 2.5835 20ZM20.5002 4.58334C11.9858 4.58334 5.0835 11.4856 5.0835 20C5.0835 28.5144 11.9858 35.4167 20.5002 35.4167C29.0146 35.4167 35.9168 28.5144 35.9168 20C35.9168 11.4856 29.0146 4.58334 20.5002 4.58334ZM27.9343 14.0133C28.4792 14.4372 28.5774 15.2225 28.1535 15.7674L21.4752 24.3539C20.4357 25.6904 18.4803 25.8638 17.2218 24.7311L12.9973 20.9291C12.4842 20.4673 12.4426 19.6769 12.9044 19.1638C13.3662 18.6507 14.1566 18.6091 14.6697 19.0709L18.8942 22.8729C19.074 23.0347 19.3533 23.0099 19.5018 22.819L26.1801 14.2326C26.604 13.6876 27.3893 13.5895 27.9343 14.0133Z"
    fill="#34589D"
  />
</svg>
