<svg
  width="16"
  height="16"
  viewBox="0 0 16 16"
  fill="none"
  xmlns="http://www.w3.org/2000/svg"
>
  <path
    fill-rule="evenodd"
    clip-rule="evenodd"
    d="M0.833313 8.00001C0.833313 4.04197 4.04194 0.833344 7.99998 0.833344C11.958 0.833344 15.1666 4.04197 15.1666 8.00001C15.1666 11.9581 11.958 15.1667 7.99998 15.1667C4.04194 15.1667 0.833313 11.9581 0.833313 8.00001ZM7.99998 1.83334C4.59422 1.83334 1.83331 4.59425 1.83331 8.00001C1.83331 11.4058 4.59422 14.1667 7.99998 14.1667C11.4057 14.1667 14.1666 11.4058 14.1666 8.00001C14.1666 4.59425 11.4057 1.83334 7.99998 1.83334ZM10.9736 5.60533C11.1916 5.77487 11.2309 6.08901 11.0613 6.30698L8.38999 9.74155C7.97418 10.2762 7.19204 10.3455 6.68862 9.89247L4.99883 8.37166C4.79358 8.18693 4.77694 7.87078 4.96167 7.66553C5.1464 7.46027 5.46254 7.44363 5.6678 7.62836L7.35758 9.14917C7.4295 9.2139 7.54123 9.20399 7.60064 9.12761L10.272 5.69304C10.4415 5.47507 10.7556 5.4358 10.9736 5.60533Z"
    fill="#1BAD03"
  />
</svg>
