<svg
  width="20"
  height="20"
  viewBox="0 0 20 20"
  fill="none"
  xmlns="http://www.w3.org/2000/svg"
>
  <path
    d="M10 20C15.5228 20 20 15.5228 20 10C20 4.47717 15.5228 0 10 0C4.47717 0 0 4.47717 0 10C0 15.5228 4.47717 20 10 20Z"
    fill="url(#paint0_linear_4167_12141)"
  />
  <path
    d="M3.72434 10.4893C4.89333 9.8454 6.19825 9.30799 7.4175 8.76782C9.51508 7.88307 11.621 7.01365 13.7482 6.20424C14.162 6.06632 14.9057 5.93144 14.9786 6.54478C14.9387 7.41294 14.7744 8.27603 14.6617 9.13911C14.3758 11.0371 14.0453 12.9286 13.723 14.8204C13.612 15.4505 12.8226 15.7767 12.3175 15.3734C11.1037 14.5535 9.8805 13.7416 8.68217 12.9027C8.28963 12.5038 8.65363 11.931 9.00421 11.6462C10.004 10.6609 11.0642 9.82386 12.0117 8.78769C12.2673 8.17049 11.5121 8.69065 11.263 8.85003C9.89438 9.79319 8.55921 10.7939 7.11621 11.6229C6.37913 12.0286 5.52004 11.6819 4.78329 11.4554C4.1227 11.1819 3.15469 10.9064 3.72428 10.4894L3.72434 10.4893Z"
    fill="white"
  />
  <defs>
    <linearGradient
      id="paint0_linear_4167_12141"
      x1="7.50117"
      y1="0.834"
      x2="2.50117"
      y2="12.5"
      gradientUnits="userSpaceOnUse"
    >
      <stop stop-color="#37AEE2" />
      <stop offset="1" stop-color="#1E96C8" />
    </linearGradient>
  </defs>
</svg>
