<svg
  width="22"
  height="28"
  viewBox="0 0 22 28"
  fill="none"
  xmlns="http://www.w3.org/2000/svg"
>
  <path
    fill-rule="evenodd"
    clip-rule="evenodd"
    d="M16.333 0.666504C17.0694 0.666504 17.6664 1.26346 17.6664 1.99984V3.33317H4.33303V1.99984C4.33303 1.26346 4.92999 0.666504 5.66636 0.666504H16.333ZM20.693 7.69317L19.973 6.97317C19.3606 6.36014 18.5328 6.01083 17.6664 5.99984H4.33303C3.44808 5.99678 2.59854 6.34716 1.97303 6.97317L1.25303 7.69317C0.659519 8.3141 0.329759 9.14089 0.333032 9.99984V25.9998C0.333032 26.7362 0.929986 27.3332 1.66637 27.3332H2.9997C3.73608 27.3332 4.33303 26.7362 4.33303 25.9998V24.6665H17.6664V25.9998C17.6664 26.7362 18.2633 27.3332 18.9997 27.3332H20.333C21.0694 27.3332 21.6664 26.7362 21.6664 25.9998V9.99984C21.6554 9.13339 21.3061 8.30558 20.693 7.69317ZM6.9997 20.6665C6.9997 21.4029 6.40275 21.9998 5.66637 21.9998H4.33303C3.59665 21.9998 2.9997 21.4029 2.9997 20.6665V19.3332C2.9997 18.5968 3.59665 17.9998 4.33303 17.9998H5.66637C6.40275 17.9998 6.9997 18.5968 6.9997 19.3332V20.6665ZM17.6664 21.9998C18.4027 21.9998 18.9997 21.4029 18.9997 20.6665V19.3332C18.9997 18.5968 18.4027 17.9998 17.6664 17.9998H16.333C15.5967 17.9998 14.9997 18.5968 14.9997 19.3332V20.6665C14.9997 21.4029 15.5967 21.9998 16.333 21.9998H17.6664ZM18.9997 13.9998H2.9997V9.99984H18.9997V13.9998Z"
    fill="#2E4E8C"
  />
</svg>
