<svg
  width="14"
  height="14"
  viewBox="0 0 14 14"
  fill="none"
  xmlns="http://www.w3.org/2000/svg"
>
  <path
    fill-rule="evenodd"
    clip-rule="evenodd"
    d="M4.64645 3.1869C4.45118 2.99164 4.45118 2.67505 4.64645 2.47979L6.64645 0.479792C6.84171 0.28453 7.15829 0.28453 7.35355 0.479792L9.35355 2.47979C9.54882 2.67505 9.54882 2.99164 9.35355 3.1869C9.15829 3.38216 8.84171 3.38216 8.64645 3.1869L7.5 2.04045L7.5 8.83334C7.5 9.10949 7.27614 9.33334 7 9.33334C6.72386 9.33334 6.5 9.10949 6.5 8.83334L6.5 2.04045L5.35355 3.1869C5.15829 3.38216 4.84171 3.38216 4.64645 3.1869Z"
    fill="#28303F"
  />
  <path
    fill-rule="evenodd"
    clip-rule="evenodd"
    d="M3.66667 13.6667C1.91777 13.6667 0.5 12.2489 0.5 10.5L0.5 7.83332C0.5 6.08442 1.91777 4.66666 3.66667 4.66666L4 4.66666C4.27614 4.66666 4.5 4.89051 4.5 5.16666C4.5 5.4428 4.27614 5.66666 4 5.66666H3.66667C2.47005 5.66666 1.5 6.63671 1.5 7.83332L1.5 10.5C1.5 11.6966 2.47005 12.6667 3.66667 12.6667L10.3333 12.6667C11.53 12.6667 12.5 11.6966 12.5 10.5V7.83332C12.5 6.63671 11.53 5.66666 10.3333 5.66666H10C9.72386 5.66666 9.5 5.4428 9.5 5.16666C9.5 4.89051 9.72386 4.66666 10 4.66666L10.3333 4.66666C12.0822 4.66666 13.5 6.08442 13.5 7.83332V10.5C13.5 12.2489 12.0822 13.6667 10.3333 13.6667L3.66667 13.6667Z"
    fill="#28303F"
  />
</svg>
