<svg
  width="20"
  height="20"
  viewBox="0 0 20 20"
  fill="none"
  xmlns="http://www.w3.org/2000/svg"
>
  <path
    d="M10 20C15.5228 20 20 15.5228 20 10C20 4.47715 15.5228 0 10 0C4.47715 0 0 4.47715 0 10C0 15.5228 4.47715 20 10 20Z"
    fill="#25D366"
  />
  <path
    fill-rule="evenodd"
    clip-rule="evenodd"
    d="M10.3298 15.5639H10.3273C9.33212 15.5635 8.35425 15.3138 7.48572 14.8401L4.3335 15.667L5.17709 12.5857C4.65672 11.6839 4.3829 10.6609 4.38335 9.61293C4.38465 6.33436 7.05217 3.66699 10.3297 3.66699C11.9204 3.66768 13.4134 4.28694 14.5361 5.41091C15.6587 6.53483 16.2767 8.0288 16.2761 9.61762C16.2747 12.8954 13.6083 15.5625 10.3298 15.5639ZM7.63182 13.7635L7.8123 13.8706C8.57112 14.3209 9.44096 14.5592 10.3278 14.5595H10.3298C13.0539 14.5595 15.271 12.3423 15.2721 9.61716C15.2726 8.29655 14.759 7.05483 13.8259 6.12062C12.8928 5.18641 11.6519 4.67168 10.3318 4.67122C7.6056 4.67122 5.38845 6.88817 5.38737 9.61315C5.38699 10.547 5.64828 11.4565 6.14302 12.2434L6.26053 12.4304L5.76125 14.2542L7.63182 13.7635ZM13.1221 10.8978C13.2257 10.9479 13.2957 10.9817 13.3255 11.0316C13.3627 11.0936 13.3627 11.391 13.2389 11.7382C13.1151 12.0852 12.5215 12.402 12.236 12.4446C11.98 12.4829 11.6561 12.4988 11.3002 12.3857C11.0844 12.3173 10.8077 12.2258 10.4532 12.0727C9.06029 11.4713 8.11898 10.1213 7.94107 9.86614C7.92861 9.84827 7.91989 9.83577 7.91503 9.82927L7.91383 9.82767C7.8352 9.72276 7.30835 9.01981 7.30835 8.29229C7.30835 7.6079 7.64453 7.24917 7.79928 7.08405C7.80988 7.07274 7.81963 7.06234 7.82836 7.0528C7.96455 6.90405 8.12552 6.86686 8.22457 6.86686C8.32361 6.86686 8.42277 6.86778 8.50933 6.87213C8.52001 6.87266 8.53113 6.8726 8.54261 6.87253C8.6292 6.87202 8.73714 6.87139 8.84363 7.12717C8.88459 7.22561 8.94453 7.37153 9.00775 7.52544C9.1356 7.8367 9.27687 8.18062 9.30172 8.23038C9.33887 8.30476 9.36363 8.39149 9.31411 8.4907C9.30667 8.50557 9.29979 8.51961 9.29323 8.53302C9.25603 8.60896 9.22867 8.66482 9.16553 8.73854C9.14071 8.76752 9.11505 8.79877 9.08939 8.83002C9.03827 8.89227 8.98716 8.95451 8.94266 8.99885C8.86828 9.07294 8.79085 9.15332 8.87752 9.30207C8.96419 9.45082 9.26237 9.93735 9.70407 10.3313C10.1789 10.7548 10.5915 10.9338 10.8007 11.0246C10.8416 11.0423 10.8746 11.0566 10.8989 11.0688C11.0474 11.1432 11.1341 11.1307 11.2208 11.0316C11.3075 10.9324 11.5922 10.5977 11.6912 10.449C11.7903 10.3003 11.8894 10.3251 12.0255 10.3747C12.1617 10.4243 12.8922 10.7837 13.0408 10.858C13.0698 10.8726 13.0969 10.8857 13.1221 10.8978Z"
    fill="#FDFDFD"
  />
</svg>
